<svg xmlns="http://www.w3.org/2000/svg" xmlns:xlink="http://www.w3.org/1999/xlink" width="1040" height="385.65"><rect width="1040" height="385.65" rx="5" ry="5" class="a"/><svg y="0%" x="0%"><circle cx="20" cy="20" r="6" fill="#ff5f58"/><circle cx="40" cy="20" r="6" fill="#ffbd2e"/><circle cx="60" cy="20" r="6" fill="#18c132"/></svg><svg height="325.65" viewBox="0 0 100 32.565" width="1000" x="15" xmlns="http://www.w3.org/2000/svg" xmlns:xlink="http://www.w3.org/1999/xlink" y="50"><style>@keyframes p{0%{transform:translateX(-100px)}8.1%{transform:translateX(-200px)}8.9%{transform:translateX(-300px)}9.6%{transform:translateX(-400px)}10.3%{transform:translateX(-500px)}10.8%{transform:translateX(-600px)}11.3%{transform:translateX(-700px)}11.7%{transform:translateX(-800px)}12%{transform:translateX(-900px)}12.3%{transform:translateX(-1000px)}12.4%{transform:translateX(-1100px)}12.5%{transform:translateX(-1200px)}12.6%{transform:translateX(-1300px)}12.9%{transform:translateX(-1400px)}13%{transform:translateX(-1500px)}13.7%{transform:translateX(-1600px)}14.1%{transform:translateX(-1700px)}14.2%{transform:translateX(-1800px)}14.4%{transform:translateX(-1900px)}14.5%{transform:translateX(-2000px)}14.6%{transform:translateX(-2200px)}14.7%{transform:translateX(-2300px)}14.8%{transform:translateX(-2400px)}14.9%{transform:translateX(-2500px)}15%{transform:translateX(-2700px)}15.1%{transform:translateX(-2800px)}15.2%{transform:translateX(-2900px)}15.3%{transform:translateX(-3000px)}15.4%{transform:translateX(-3100px)}15.5%{transform:translateX(-3300px)}15.6%{transform:translateX(-3400px)}15.7%{transform:translateX(-3500px)}15.8%{transform:translateX(-3600px)}15.9%{transform:translateX(-3800px)}16%{transform:translateX(-3900px)}16.1%{transform:translateX(-4000px)}16.2%{transform:translateX(-4100px)}16.3%{transform:translateX(-4300px)}16.4%{transform:translateX(-4400px)}16.5%{transform:translateX(-4500px)}20.5%{transform:translateX(-4600px)}24.5%{transform:translateX(-5200px)}24.6%{transform:translateX(-5500px)}32.6%{transform:translateX(-5800px)}39.8%{transform:translateX(-5900px)}44%{transform:translateX(-6000px)}48.8%{transform:translateX(-6300px)}55.6%{transform:translateX(-6400px)}62.9%{transform:translateX(-6500px)}68.2%{transform:translateX(-6600px)}75%{transform:translateX(-6800px)}75.1%{transform:translateX(-7000px)}83.1%{transform:translateX(-7100px)}84.5%{transform:translateX(-7200px)}85.3%{transform:translateX(-7300px)}86.2%{transform:translateX(-7400px)}87.3%{transform:translateX(-7500px)}89%{transform:translateX(-7600px)}92%{transform:translateX(-7700px)}93.3%{transform:translateX(-8000px)}95.4%{transform:translateX(-8100px)}98.4%{transform:translateX(-8200px)}to{transform:translateX(-8400px)}}.a{fill:#282d35}.f{fill:#b9c0cb}.f,.g,.h,.i{white-space:pre}.g{fill:#b9c0cb;font-weight:700}.h,.i{fill:#66c2cd}.i{font-weight:700}.l{fill:#b9c0cb}.r{fill:#282d35;white-space:pre}</style><g font-family="Monaco,Consolas,Menlo,'Bitstream Vera Sans Mono','Powerline Symbols',monospace" font-size="1.67"><defs><symbol id="1"><text y="1.67" class="f">Dockerfile</text><text x="32.064" y="1.67" class="f">index.js</text><text x="64.128" y="1.67" class="f">package.json</text></symbol><symbol id="2"><text y="1.67" class="f">$</text></symbol><symbol id="3"><text y="1.67" class="f">$</text><text x="2.004" y="1.67" class="f">flarepilot</text></symbol><symbol id="4"><text y="1.67" class="f">$</text><text x="2.004" y="1.67" class="f">flarepilot</text><text x="13.026" y="1.67" class="f">deploy</text></symbol><symbol id="5"><text y="1.67" class="f">$</text><text x="2.004" y="1.67" class="f">flarepilot</text><text x="13.026" y="1.67" class="f">deploy</text><text x="20.04" y="1.67" class="f">--regions</text></symbol><symbol id="6"><text y="1.67" class="f">$</text><text x="2.004" y="1.67" class="f">flarepilot</text><text x="13.026" y="1.67" class="f">deploy</text><text x="20.04" y="1.67" class="f">--regions</text><text x="30.06" y="1.67" class="f">weur,eeur</text><text x="40.08" y="1.67" class="f">--instances</text></symbol><symbol id="7"><text y="1.67" class="f">$</text><text x="2.004" y="1.67" class="f">flarepilot</text><text x="13.026" y="1.67" class="f">deploy</text><text x="20.04" y="1.67" class="f">--regions</text><text x="30.06" y="1.67" class="f">weur,eeur</text><text x="40.08" y="1.67" class="f">--instances</text><text x="52.104" y="1.67" class="f">2</text></symbol><symbol id="8"><text y="1.67" class="g">Deploy</text><text x="7.014" y="1.67" class="g">summary</text></symbol><symbol id="9"><text y="1.67" class="f">────────────────────────────────────────</text></symbol><symbol id="10"><text x="2.004" y="1.67" class="g">App:</text><text x="14.028" y="1.67" class="h">snowy-hill-6237</text><text x="30.06" y="1.67" class="f">(new)</text></symbol><symbol id="11"><text x="2.004" y="1.67" class="g">Path:</text><text x="14.028" y="1.67" class="f">.</text></symbol><symbol id="12"><text x="2.004" y="1.67" class="g">Image:</text><text x="14.028" y="1.67" class="f">registry.cloudflare.com/0afbc4g316624d2a264d91aa19dacfba/flarepilot-snowy-hill-6237:17</text></symbol><symbol id="13"><text y="1.67" class="f">71491839734</text></symbol><symbol id="14"><text x="2.004" y="1.67" class="g">Regions:</text><text x="14.028" y="1.67" class="f">weur,</text><text x="20.04" y="1.67" class="f">eeur</text></symbol><symbol id="15"><text x="2.004" y="1.67" class="g">Instances:</text><text x="14.028" y="1.67" class="f">2</text><text x="16.032" y="1.67" class="f">per</text><text x="20.04" y="1.67" class="f">region</text></symbol><symbol id="16"><text x="2.004" y="1.67" class="g">Type:</text><text x="14.028" y="1.67" class="f">lite</text></symbol><symbol id="17"><text x="2.004" y="1.67" class="g">Port:</text><text x="14.028" y="1.67" class="f">8080</text></symbol><symbol id="18"><text x="2.004" y="1.67" class="g">Sleep:</text><text x="14.028" y="1.67" class="f">30s</text></symbol><symbol id="19"><text y="1.67" class="f">Proceed?</text><text x="9.018" y="1.67" class="f">[Y/n]</text></symbol><symbol id="20"><text y="1.67" class="i">==&gt;</text><text x="4.008" y="1.67" class="g">Building</text><text x="13.026" y="1.67" class="g">image</text></symbol><symbol id="21"><text x="4.008" y="1.67" class="f">flarepilot-snowy-hill-6237:1771491839734</text><text x="45.09" y="1.67" class="f">for</text><text x="49.098" y="1.67" class="f">linux/amd64</text></symbol><symbol id="22"><text y="1.67" class="i">==&gt;</text><text x="4.008" y="1.67" class="g">Pushing</text><text x="12.024" y="1.67" class="g">to</text><text x="15.03" y="1.67" class="g">Cloudflare</text><text x="26.052" y="1.67" class="g">Registry</text></symbol><symbol id="23"><text x="4.008" y="1.67" class="f">Authenticating</text><text x="19.038" y="1.67" class="f">with</text><text x="24.048" y="1.67" class="f">registry.cloudflare.com...</text></symbol><symbol id="24"><text x="4.008" y="1.67" class="f">Pushing</text><text x="12.024" y="1.67" class="f">registry.cloudflare.com/0afbc4g316624d2a264d91aa19dacfba/flarepilot-snowy-hill-6237:1771</text></symbol><symbol id="25"><text y="1.67" class="f">491839734...</text></symbol><symbol id="26"><text y="1.67" class="i">==&gt;</text><text x="4.008" y="1.67" class="g">Deploying</text><text x="14.028" y="1.67" class="g">worker</text></symbol><symbol id="27"><text x="4.008" y="1.67" class="f">Bundling</text><text x="13.026" y="1.67" class="f">worker</text><text x="20.04" y="1.67" class="f">template...</text></symbol><symbol id="28"><text x="4.008" y="1.67" class="f">Uploading</text><text x="14.028" y="1.67" class="f">flarepilot-snowy-hill-6237...</text></symbol><symbol id="29"><text y="1.67" class="i">==&gt;</text><text x="4.008" y="1.67" class="g">Deploying</text><text x="14.028" y="1.67" class="g">container</text></symbol><symbol id="30"><text x="4.008" y="1.67" class="f">Resolving</text><text x="14.028" y="1.67" class="f">DO</text><text x="17.034" y="1.67" class="f">namespace...</text></symbol><symbol id="31"><text x="4.008" y="1.67" class="f">Creating</text><text x="13.026" y="1.67" class="f">container</text><text x="23.046" y="1.67" class="f">application...</text></symbol><symbol id="32"><text x="4.008" y="1.67" class="f">Enabling</text><text x="13.026" y="1.67" class="f">workers.dev</text><text x="25.05" y="1.67" class="f">subdomain...</text></symbol><symbol id="33"><text y="1.67" style="white-space:pre" fill="#a8cc8c">--&gt;</text><text x="4.008" y="1.67" class="f">App</text><text x="8.016" y="1.67" class="h">snowy-hill-6237</text><text x="24.048" y="1.67" class="f">deployed!</text></symbol><symbol id="34"><text x="2.004" y="1.67" class="g">Name:</text><text x="9.018" y="1.67" class="h">snowy-hill-6237</text></symbol><symbol id="35"><text x="2.004" y="1.67" class="g">Image:</text><text x="9.018" y="1.67" class="f">registry.cloudflare.com/0afbc4g316624d2a264d91aa19dacfba/flarepilot-snowy-hill-6237:1771491</text></symbol><symbol id="36"><text y="1.67" class="f">839734</text></symbol><symbol id="37"><text x="2.004" y="1.67" class="g">URL:</text><text x="9.018" y="1.67" style="white-space:pre" fill="#66c2cd" text-decoration="underline">https://flarepilot-snowy-hill-6237.tag-concierge.workers.dev</text></symbol><symbol id="38"><text y="1.67" class="f">Next:</text><text x="6.012" y="1.67" class="f">flarepilot</text><text x="17.034" y="1.67" class="f">open</text><text x="22.044" y="1.67" class="f">snowy-hill-6237</text></symbol><symbol id="39"><path class="l" d="M0 0h1v2.171H0z"/><text y="1.67" style="white-space:pre" fill="#282d35" font-weight="700">%</text></symbol><symbol id="40"><text y="1.67" class="f">$</text><text x="2.004" y="1.67" class="f">curl</text></symbol><symbol id="41"><text y="1.67" class="f">$</text><text x="2.004" y="1.67" class="f">curl</text><text x="7.014" y="1.67" class="f">https://flarepilot-snowy-hill-6237.tag-concierge.workers.dev/</text></symbol><symbol id="42"><text y="1.67" class="f">Hello</text><text x="6.012" y="1.67" class="f">World</text><text x="12.024" y="1.67" class="f">🇧🇬</text><text x="17.034" y="1.67" class="f">from</text><text x="22.044" y="1.67" class="f">Node.js</text><text x="30.06" y="1.67" class="f">v22.22.0</text></symbol><symbol id="43"><text x="2.004" y="1.67" class="f">Location</text><text x="12.024" y="1.67" class="f">sof01</text></symbol><symbol id="44"><text x="4.008" y="1.67" class="f">Region</text><text x="12.024" y="1.67" class="f">EEUR</text></symbol><symbol id="45"><text x="4.008" y="1.67" class="f">Uptime</text><text x="12.024" y="1.67" class="f">26s</text></symbol><symbol id="46"><text x="2.004" y="1.67" class="f">Requests</text><text x="12.024" y="1.67" class="f">13</text></symbol><symbol id="47"><text x="6.012" y="1.67" class="f">CPUs</text><text x="12.024" y="1.67" class="f">1</text></symbol><symbol id="48"><text x="4.008" y="1.67" class="f">Memory</text><text x="12.024" y="1.67" class="f">56</text><text x="15.03" y="1.67" class="f">MB</text><text x="18.036" y="1.67" class="f">/</text><text x="20.04" y="1.67" class="f">467</text><text x="24.048" y="1.67" class="f">MB</text></symbol><symbol id="49"><text y="1.67" class="f">Hello</text><text x="6.012" y="1.67" class="f">World</text><text x="12.024" y="1.67" class="f">🇹🇷</text><text x="17.034" y="1.67" class="f">from</text><text x="22.044" y="1.67" class="f">Node.js</text><text x="30.06" y="1.67" class="f">v22.22.0</text></symbol><symbol id="50"><text x="2.004" y="1.67" class="f">Location</text><text x="12.024" y="1.67" class="f">ist03</text></symbol><symbol id="51"><text x="4.008" y="1.67" class="f">Uptime</text><text x="12.024" y="1.67" class="f">23s</text></symbol><symbol id="52"><text x="2.004" y="1.67" class="f">Requests</text><text x="12.024" y="1.67" class="f">20</text></symbol><symbol id="53"><text x="4.008" y="1.67" class="f">Memory</text><text x="12.024" y="1.67" class="f">57</text><text x="15.03" y="1.67" class="f">MB</text><text x="18.036" y="1.67" class="f">/</text><text x="20.04" y="1.67" class="f">467</text><text x="24.048" y="1.67" class="f">MB</text></symbol><symbol id="a"><path fill="transparent" d="M0 0h100v16H0z"/></symbol><symbol id="b"><path fill="#6f7683" d="M0 0h1.102v2.171H0z"/></symbol></defs><path class="a" d="M0 0h100v32.565H0z"/><g style="animation-duration:12.4261s;animation-iteration-count:infinite;animation-name:p;animation-timing-function:steps(1,end)"><svg width="8500"><svg><use xlink:href="#a"/><use xlink:href="#b" x="-.004"/></svg><svg x="100"><use xlink:href="#a"/><use xlink:href="#b" x="-.004" y="2.146"/><use xlink:href="#1"/></svg><svg x="200"><use xlink:href="#a"/><use xlink:href="#b" x="1.996" y="2.146"/><use xlink:href="#1"/><use xlink:href="#2" y="2.171"/></svg><svg x="300"><use xlink:href="#a"/><use xlink:href="#b" x="2.996" y="2.146"/><use xlink:href="#1"/><text y="3.841" class="f">$</text><text x="2.004" y="3.841" class="f">f</text></svg><svg x="400"><use xlink:href="#a"/><use xlink:href="#b" x="3.996" y="2.146"/><use xlink:href="#1"/><text y="3.841" class="f">$</text><text x="2.004" y="3.841" class="f">fl</text></svg><svg x="500"><use xlink:href="#a"/><use xlink:href="#b" x="4.996" y="2.146"/><use xlink:href="#1"/><text y="3.841" class="f">$</text><text x="2.004" y="3.841" class="f">fla</text></svg><svg x="600"><use xlink:href="#a"/><use xlink:href="#b" x="5.996" y="2.146"/><use xlink:href="#1"/><text y="3.841" class="f">$</text><text x="2.004" y="3.841" class="f">flar</text></svg><svg x="700"><use xlink:href="#a"/><use xlink:href="#b" x="6.996" y="2.146"/><use xlink:href="#1"/><text y="3.841" class="f">$</text><text x="2.004" y="3.841" class="f">flare</text></svg><svg x="800"><use xlink:href="#a"/><use xlink:href="#b" x="7.996" y="2.146"/><use xlink:href="#1"/><text y="3.841" class="f">$</text><text x="2.004" y="3.841" class="f">flarep</text></svg><svg x="900"><use xlink:href="#a"/><use xlink:href="#b" x="8.996" y="2.146"/><use xlink:href="#1"/><text y="3.841" class="f">$</text><text x="2.004" y="3.841" class="f">flarepi</text></svg><svg x="1000"><use xlink:href="#a"/><use xlink:href="#b" x="9.996" y="2.146"/><use xlink:href="#1"/><text y="3.841" class="f">$</text><text x="2.004" y="3.841" class="f">flarepil</text></svg><svg x="1100"><use xlink:href="#a"/><use xlink:href="#b" x="10.996" y="2.146"/><use xlink:href="#1"/><text y="3.841" class="f">$</text><text x="2.004" y="3.841" class="f">flarepilo</text></svg><svg x="1200"><use xlink:href="#a"/><use xlink:href="#b" x="11.996" y="2.146"/><use xlink:href="#1"/><use xlink:href="#3" y="2.171"/></svg><svg x="1300"><use xlink:href="#a"/><use xlink:href="#b" x="12.996" y="2.146"/><use xlink:href="#1"/><use xlink:href="#3" y="2.171"/></svg><svg x="1400"><use xlink:href="#a"/><use xlink:href="#b" x="13.996" y="2.146"/><use xlink:href="#1"/><text y="3.841" class="f">$</text><text x="2.004" y="3.841" class="f">flarepilot</text><text x="13.026" y="3.841" class="f">d</text></svg><svg x="1500"><use xlink:href="#a"/><use xlink:href="#b" x="14.996" y="2.146"/><use xlink:href="#1"/><text y="3.841" class="f">$</text><text x="2.004" y="3.841" class="f">flarepilot</text><text x="13.026" y="3.841" class="f">de</text></svg><svg x="1600"><use xlink:href="#a"/><use xlink:href="#b" x="15.996" y="2.146"/><use xlink:href="#1"/><text y="3.841" class="f">$</text><text x="2.004" y="3.841" class="f">flarepilot</text><text x="13.026" y="3.841" class="f">dep</text></svg><svg x="1700"><use xlink:href="#a"/><use xlink:href="#b" x="16.996" y="2.146"/><use xlink:href="#1"/><text y="3.841" class="f">$</text><text x="2.004" y="3.841" class="f">flarepilot</text><text x="13.026" y="3.841" class="f">depl</text></svg><svg x="1800"><use xlink:href="#a"/><use xlink:href="#b" x="17.996" y="2.146"/><use xlink:href="#1"/><text y="3.841" class="f">$</text><text x="2.004" y="3.841" class="f">flarepilot</text><text x="13.026" y="3.841" class="f">deplo</text></svg><svg x="1900"><use xlink:href="#a"/><use xlink:href="#b" x="18.996" y="2.146"/><use xlink:href="#1"/><use xlink:href="#4" y="2.171"/></svg><svg x="2000"><use xlink:href="#a"/><use xlink:href="#b" x="19.996" y="2.146"/><use xlink:href="#1"/><use xlink:href="#4" y="2.171"/></svg><svg x="2100"><use xlink:href="#a"/><use xlink:href="#b" x="20.996" y="2.146"/><use xlink:href="#1"/><text y="3.841" class="f">$</text><text x="2.004" y="3.841" class="f">flarepilot</text><text x="13.026" y="3.841" class="f">deploy</text><text x="20.04" y="3.841" class="f">-</text></svg><svg x="2200"><use xlink:href="#a"/><use xlink:href="#b" x="21.996" y="2.146"/><use xlink:href="#1"/><text y="3.841" class="f">$</text><text x="2.004" y="3.841" class="f">flarepilot</text><text x="13.026" y="3.841" class="f">deploy</text><text x="20.04" y="3.841" class="f">--</text></svg><svg x="2300"><use xlink:href="#a"/><use xlink:href="#b" x="22.996" y="2.146"/><use xlink:href="#1"/><text y="3.841" class="f">$</text><text x="2.004" y="3.841" class="f">flarepilot</text><text x="13.026" y="3.841" class="f">deploy</text><text x="20.04" y="3.841" class="f">--r</text></svg><svg x="2400"><use xlink:href="#a"/><use xlink:href="#b" x="23.996" y="2.146"/><use xlink:href="#1"/><text y="3.841" class="f">$</text><text x="2.004" y="3.841" class="f">flarepilot</text><text x="13.026" y="3.841" class="f">deploy</text><text x="20.04" y="3.841" class="f">--re</text></svg><svg x="2500"><use xlink:href="#a"/><use xlink:href="#b" x="24.996" y="2.146"/><use xlink:href="#1"/><text y="3.841" class="f">$</text><text x="2.004" y="3.841" class="f">flarepilot</text><text x="13.026" y="3.841" class="f">deploy</text><text x="20.04" y="3.841" class="f">--reg</text></svg><svg x="2600"><use xlink:href="#a"/><use xlink:href="#b" x="25.996" y="2.146"/><use xlink:href="#1"/><text y="3.841" class="f">$</text><text x="2.004" y="3.841" class="f">flarepilot</text><text x="13.026" y="3.841" class="f">deploy</text><text x="20.04" y="3.841" class="f">--regi</text></svg><svg x="2700"><use xlink:href="#a"/><use xlink:href="#b" x="26.996" y="2.146"/><use xlink:href="#1"/><text y="3.841" class="f">$</text><text x="2.004" y="3.841" class="f">flarepilot</text><text x="13.026" y="3.841" class="f">deploy</text><text x="20.04" y="3.841" class="f">--regio</text></svg><svg x="2800"><use xlink:href="#a"/><use xlink:href="#b" x="27.996" y="2.146"/><use xlink:href="#1"/><text y="3.841" class="f">$</text><text x="2.004" y="3.841" class="f">flarepilot</text><text x="13.026" y="3.841" class="f">deploy</text><text x="20.04" y="3.841" class="f">--region</text></svg><svg x="2900"><use xlink:href="#a"/><use xlink:href="#b" x="28.996" y="2.146"/><use xlink:href="#1"/><use xlink:href="#5" y="2.171"/></svg><svg x="3000"><use xlink:href="#a"/><use xlink:href="#b" x="29.996" y="2.146"/><use xlink:href="#1"/><use xlink:href="#5" y="2.171"/></svg><svg x="3100"><use xlink:href="#a"/><use xlink:href="#b" x="38.996" y="2.146"/><use xlink:href="#1"/><text y="3.841" class="f">$</text><text x="2.004" y="3.841" class="f">flarepilot</text><text x="13.026" y="3.841" class="f">deploy</text><text x="20.04" y="3.841" class="f">--regions</text><path class="l" d="M30.06 2.171h9v2.171h-9z"/><text x="30.06" y="3.841" class="r">weur,eeur</text></svg><svg x="3200"><use xlink:href="#a"/><use xlink:href="#b" x="39.996" y="2.146"/><use xlink:href="#1"/><text y="3.841" class="f">$</text><text x="2.004" y="3.841" class="f">flarepilot</text><text x="13.026" y="3.841" class="f">deploy</text><text x="20.04" y="3.841" class="f">--regions</text><text x="30.06" y="3.841" class="f">weur,eeur</text></svg><svg x="3300"><use xlink:href="#a"/><use xlink:href="#b" x="40.996" y="2.146"/><use xlink:href="#1"/><text y="3.841" class="f">$</text><text x="2.004" y="3.841" class="f">flarepilot</text><text x="13.026" y="3.841" class="f">deploy</text><text x="20.04" y="3.841" class="f">--regions</text><text x="30.06" y="3.841" class="f">weur,eeur</text><text x="40.08" y="3.841" class="f">-</text></svg><svg x="3400"><use xlink:href="#a"/><use xlink:href="#b" x="41.996" y="2.146"/><use xlink:href="#1"/><text y="3.841" class="f">$</text><text x="2.004" y="3.841" class="f">flarepilot</text><text x="13.026" y="3.841" class="f">deploy</text><text x="20.04" y="3.841" class="f">--regions</text><text x="30.06" y="3.841" class="f">weur,eeur</text><text x="40.08" y="3.841" class="f">--</text></svg><svg x="3500"><use xlink:href="#a"/><use xlink:href="#b" x="42.996" y="2.146"/><use xlink:href="#1"/><text y="3.841" class="f">$</text><text x="2.004" y="3.841" class="f">flarepilot</text><text x="13.026" y="3.841" class="f">deploy</text><text x="20.04" y="3.841" class="f">--regions</text><text x="30.06" y="3.841" class="f">weur,eeur</text><text x="40.08" y="3.841" class="f">--i</text></svg><svg x="3600"><use xlink:href="#a"/><use xlink:href="#b" x="43.996" y="2.146"/><use xlink:href="#1"/><text y="3.841" class="f">$</text><text x="2.004" y="3.841" class="f">flarepilot</text><text x="13.026" y="3.841" class="f">deploy</text><text x="20.04" y="3.841" class="f">--regions</text><text x="30.06" y="3.841" class="f">weur,eeur</text><text x="40.08" y="3.841" class="f">--in</text></svg><svg x="3700"><use xlink:href="#a"/><use xlink:href="#b" x="44.996" y="2.146"/><use xlink:href="#1"/><text y="3.841" class="f">$</text><text x="2.004" y="3.841" class="f">flarepilot</text><text x="13.026" y="3.841" class="f">deploy</text><text x="20.04" y="3.841" class="f">--regions</text><text x="30.06" y="3.841" class="f">weur,eeur</text><text x="40.08" y="3.841" class="f">--ins</text></svg><svg x="3800"><use xlink:href="#a"/><use xlink:href="#b" x="45.996" y="2.146"/><use xlink:href="#1"/><text y="3.841" class="f">$</text><text x="2.004" y="3.841" class="f">flarepilot</text><text x="13.026" y="3.841" class="f">deploy</text><text x="20.04" y="3.841" class="f">--regions</text><text x="30.06" y="3.841" class="f">weur,eeur</text><text x="40.08" y="3.841" class="f">--inst</text></svg><svg x="3900"><use xlink:href="#a"/><use xlink:href="#b" x="46.996" y="2.146"/><use xlink:href="#1"/><text y="3.841" class="f">$</text><text x="2.004" y="3.841" class="f">flarepilot</text><text x="13.026" y="3.841" class="f">deploy</text><text x="20.04" y="3.841" class="f">--regions</text><text x="30.06" y="3.841" class="f">weur,eeur</text><text x="40.08" y="3.841" class="f">--insta</text></svg><svg x="4000"><use xlink:href="#a"/><use xlink:href="#b" x="47.996" y="2.146"/><use xlink:href="#1"/><text y="3.841" class="f">$</text><text x="2.004" y="3.841" class="f">flarepilot</text><text x="13.026" y="3.841" class="f">deploy</text><text x="20.04" y="3.841" class="f">--regions</text><text x="30.06" y="3.841" class="f">weur,eeur</text><text x="40.08" y="3.841" class="f">--instan</text></svg><svg x="4100"><use xlink:href="#a"/><use xlink:href="#b" x="48.996" y="2.146"/><use xlink:href="#1"/><text y="3.841" class="f">$</text><text x="2.004" y="3.841" class="f">flarepilot</text><text x="13.026" y="3.841" class="f">deploy</text><text x="20.04" y="3.841" class="f">--regions</text><text x="30.06" y="3.841" class="f">weur,eeur</text><text x="40.08" y="3.841" class="f">--instanc</text></svg><svg x="4200"><use xlink:href="#a"/><use xlink:href="#b" x="49.996" y="2.146"/><use xlink:href="#1"/><text y="3.841" class="f">$</text><text x="2.004" y="3.841" class="f">flarepilot</text><text x="13.026" y="3.841" class="f">deploy</text><text x="20.04" y="3.841" class="f">--regions</text><text x="30.06" y="3.841" class="f">weur,eeur</text><text x="40.08" y="3.841" class="f">--instance</text></svg><svg x="4300"><use xlink:href="#a"/><use xlink:href="#b" x="50.996" y="2.146"/><use xlink:href="#1"/><use xlink:href="#6" y="2.171"/></svg><svg x="4400"><use xlink:href="#a"/><use xlink:href="#b" x="51.996" y="2.146"/><use xlink:href="#1"/><use xlink:href="#6" y="2.171"/></svg><svg x="4500"><use xlink:href="#a"/><use xlink:href="#b" x="52.996" y="2.146"/><use xlink:href="#1"/><use xlink:href="#7" y="2.171"/></svg><svg x="4600"><use xlink:href="#a"/><use xlink:href="#b" x="-.004" y="4.317"/><use xlink:href="#1"/><use xlink:href="#7" y="2.171"/></svg><svg x="4700"><use xlink:href="#a"/><use xlink:href="#b" x="-.004" y="10.83"/><use xlink:href="#1"/><use xlink:href="#7" y="2.171"/><use xlink:href="#8" y="6.513"/><use xlink:href="#9" y="8.684"/></svg><svg x="4800"><use xlink:href="#a"/><use xlink:href="#b" x="-.004" y="19.514"/><use xlink:href="#1"/><use xlink:href="#7" y="2.171"/><use xlink:href="#8" y="6.513"/><use xlink:href="#9" y="8.684"/><use xlink:href="#10" y="10.855"/><use xlink:href="#11" y="13.026"/><use xlink:href="#12" y="15.197"/><use xlink:href="#13" y="17.368"/></svg><svg x="4900"><use xlink:href="#a"/><use xlink:href="#b" x="-.004" y="21.685"/><use xlink:href="#1"/><use xlink:href="#7" y="2.171"/><use xlink:href="#8" y="6.513"/><use xlink:href="#9" y="8.684"/><use xlink:href="#10" y="10.855"/><use xlink:href="#11" y="13.026"/><use xlink:href="#12" y="15.197"/><use xlink:href="#13" y="17.368"/><use xlink:href="#14" y="19.539"/></svg><svg x="5000"><use xlink:href="#a"/><use xlink:href="#b" x="-.004" y="26.027"/><use xlink:href="#1"/><use xlink:href="#7" y="2.171"/><use xlink:href="#8" y="6.513"/><use xlink:href="#9" y="8.684"/><use xlink:href="#10" y="10.855"/><use xlink:href="#11" y="13.026"/><use xlink:href="#12" y="15.197"/><use xlink:href="#13" y="17.368"/><use xlink:href="#14" y="19.539"/><use xlink:href="#15" y="21.71"/><use xlink:href="#16" y="23.881"/></svg><svg x="5100"><use xlink:href="#a"/><use xlink:href="#b" x="-.004" y="28.198"/><use xlink:href="#1"/><use xlink:href="#7" y="2.171"/><use xlink:href="#8" y="6.513"/><use xlink:href="#9" y="8.684"/><use xlink:href="#10" y="10.855"/><use xlink:href="#11" y="13.026"/><use xlink:href="#12" y="15.197"/><use xlink:href="#13" y="17.368"/><use xlink:href="#14" y="19.539"/><use xlink:href="#15" y="21.71"/><use xlink:href="#16" y="23.881"/><use xlink:href="#17" y="26.052"/></svg><svg x="5200"><use xlink:href="#a"/><use xlink:href="#b" x="-.004" y="32.54"/><use xlink:href="#1"/><use xlink:href="#7" y="2.171"/><use xlink:href="#8" y="6.513"/><use xlink:href="#9" y="8.684"/><use xlink:href="#10" y="10.855"/><use xlink:href="#11" y="13.026"/><use xlink:href="#12" y="15.197"/><use xlink:href="#13" y="17.368"/><use xlink:href="#14" y="19.539"/><use xlink:href="#15" y="21.71"/><use xlink:href="#16" y="23.881"/><use xlink:href="#17" y="26.052"/><use xlink:href="#18" y="28.223"/><use xlink:href="#9" y="30.394"/></svg><svg x="5300"><use xlink:href="#a"/><use xlink:href="#b" x="-.004" y="32.54"/><use xlink:href="#1"/><use xlink:href="#7" y="2.171"/><use xlink:href="#8" y="6.513"/><use xlink:href="#9" y="8.684"/><use xlink:href="#10" y="10.855"/><use xlink:href="#11" y="13.026"/><use xlink:href="#12" y="15.197"/><use xlink:href="#13" y="17.368"/><use xlink:href="#14" y="19.539"/><use xlink:href="#15" y="21.71"/><use xlink:href="#16" y="23.881"/><use xlink:href="#17" y="26.052"/><use xlink:href="#18" y="28.223"/><use xlink:href="#9" y="30.394"/></svg><svg x="5400"><use xlink:href="#a"/><use xlink:href="#b" x="-.004" y="32.54"/><use xlink:href="#1"/><use xlink:href="#7" y="2.171"/><use xlink:href="#8" y="6.513"/><use xlink:href="#9" y="8.684"/><use xlink:href="#10" y="10.855"/><use xlink:href="#11" y="13.026"/><use xlink:href="#12" y="15.197"/><use xlink:href="#13" y="17.368"/><use xlink:href="#14" y="19.539"/><use xlink:href="#15" y="21.71"/><use xlink:href="#16" y="23.881"/><use xlink:href="#17" y="26.052"/><use xlink:href="#18" y="28.223"/><use xlink:href="#9" y="30.394"/></svg><svg x="5500"><use xlink:href="#a"/><use xlink:href="#b" x="14.996" y="32.54"/><use xlink:href="#7"/><use xlink:href="#8" y="4.342"/><use xlink:href="#9" y="6.513"/><use xlink:href="#10" y="8.684"/><use xlink:href="#11" y="10.855"/><use xlink:href="#12" y="13.026"/><use xlink:href="#13" y="15.197"/><use xlink:href="#14" y="17.368"/><use xlink:href="#15" y="19.539"/><use xlink:href="#16" y="21.71"/><use xlink:href="#17" y="23.881"/><use xlink:href="#18" y="26.052"/><use xlink:href="#9" y="28.223"/><use xlink:href="#19" y="32.565"/></svg><svg x="5600"><use xlink:href="#a"/><use xlink:href="#b" x="-.004" y="32.54"/><use xlink:href="#8" y="2.171"/><use xlink:href="#9" y="4.342"/><use xlink:href="#10" y="6.513"/><use xlink:href="#11" y="8.684"/><use xlink:href="#12" y="10.855"/><use xlink:href="#13" y="13.026"/><use xlink:href="#14" y="15.197"/><use xlink:href="#15" y="17.368"/><use xlink:href="#16" y="19.539"/><use xlink:href="#17" y="21.71"/><use xlink:href="#18" y="23.881"/><use xlink:href="#9" y="26.052"/><use xlink:href="#19" y="30.394"/></svg><svg x="5700"><use xlink:href="#a"/><use xlink:href="#b" x="-.004" y="32.54"/><use xlink:href="#9"/><use xlink:href="#10" y="2.171"/><use xlink:href="#11" y="4.342"/><use xlink:href="#12" y="6.513"/><use xlink:href="#13" y="8.684"/><use xlink:href="#14" y="10.855"/><use xlink:href="#15" y="13.026"/><use xlink:href="#16" y="15.197"/><use xlink:href="#17" y="17.368"/><use xlink:href="#18" y="19.539"/><use xlink:href="#9" y="21.71"/><use xlink:href="#19" y="26.052"/><use xlink:href="#20" y="30.394"/></svg><svg x="5800"><use xlink:href="#a"/><use xlink:href="#b" x="-.004" y="32.54"/><use xlink:href="#10"/><use xlink:href="#11" y="2.171"/><use xlink:href="#12" y="4.342"/><use xlink:href="#13" y="6.513"/><use xlink:href="#14" y="8.684"/><use xlink:href="#15" y="10.855"/><use xlink:href="#16" y="13.026"/><use xlink:href="#17" y="15.197"/><use xlink:href="#18" y="17.368"/><use xlink:href="#9" y="19.539"/><use xlink:href="#19" y="23.881"/><use xlink:href="#20" y="28.223"/><use xlink:href="#21" y="30.394"/></svg><svg x="5900"><use xlink:href="#a"/><use xlink:href="#b" x="-.004" y="32.54"/><use xlink:href="#13"/><use xlink:href="#14" y="2.171"/><use xlink:href="#15" y="4.342"/><use xlink:href="#16" y="6.513"/><use xlink:href="#17" y="8.684"/><use xlink:href="#18" y="10.855"/><use xlink:href="#9" y="13.026"/><use xlink:href="#19" y="17.368"/><use xlink:href="#20" y="21.71"/><use xlink:href="#21" y="23.881"/><use xlink:href="#22" y="28.223"/><use xlink:href="#23" y="30.394"/></svg><svg x="6000"><use xlink:href="#a"/><use xlink:href="#b" x="-.004" y="32.54"/><use xlink:href="#15"/><use xlink:href="#16" y="2.171"/><use xlink:href="#17" y="4.342"/><use xlink:href="#18" y="6.513"/><use xlink:href="#9" y="8.684"/><use xlink:href="#19" y="13.026"/><use xlink:href="#20" y="17.368"/><use xlink:href="#21" y="19.539"/><use xlink:href="#22" y="23.881"/><use xlink:href="#23" y="26.052"/><use xlink:href="#24" y="28.223"/><use xlink:href="#25" y="30.394"/></svg><svg x="6100"><use xlink:href="#a"/><use xlink:href="#b" x="-.004" y="32.54"/><use xlink:href="#17"/><use xlink:href="#18" y="2.171"/><use xlink:href="#9" y="4.342"/><use xlink:href="#19" y="8.684"/><use xlink:href="#20" y="13.026"/><use xlink:href="#21" y="15.197"/><use xlink:href="#22" y="19.539"/><use xlink:href="#23" y="21.71"/><use xlink:href="#24" y="23.881"/><use xlink:href="#25" y="26.052"/><use xlink:href="#26" y="30.394"/></svg><svg x="6200"><use xlink:href="#a"/><use xlink:href="#b" x="-.004" y="32.54"/><use xlink:href="#18"/><use xlink:href="#9" y="2.171"/><use xlink:href="#19" y="6.513"/><use xlink:href="#20" y="10.855"/><use xlink:href="#21" y="13.026"/><use xlink:href="#22" y="17.368"/><use xlink:href="#23" y="19.539"/><use xlink:href="#24" y="21.71"/><use xlink:href="#25" y="23.881"/><use xlink:href="#26" y="28.223"/><use xlink:href="#27" y="30.394"/></svg><svg x="6300"><use xlink:href="#a"/><use xlink:href="#b" x="-.004" y="32.54"/><use xlink:href="#9"/><use xlink:href="#19" y="4.342"/><use xlink:href="#20" y="8.684"/><use xlink:href="#21" y="10.855"/><use xlink:href="#22" y="15.197"/><use xlink:href="#23" y="17.368"/><use xlink:href="#24" y="19.539"/><use xlink:href="#25" y="21.71"/><use xlink:href="#26" y="26.052"/><use xlink:href="#27" y="28.223"/><use xlink:href="#28" y="30.394"/></svg><svg x="6400"><use xlink:href="#a"/><use xlink:href="#b" x="-.004" y="32.54"/><use xlink:href="#20" y="2.171"/><use xlink:href="#21" y="4.342"/><use xlink:href="#22" y="8.684"/><use xlink:href="#23" y="10.855"/><use xlink:href="#24" y="13.026"/><use xlink:href="#25" y="15.197"/><use xlink:href="#26" y="19.539"/><use xlink:href="#27" y="21.71"/><use xlink:href="#28" y="23.881"/><use xlink:href="#29" y="28.223"/><use xlink:href="#30" y="30.394"/></svg><svg x="6500"><use xlink:href="#a"/><use xlink:href="#b" x="-.004" y="32.54"/><use xlink:href="#20"/><use xlink:href="#21" y="2.171"/><use xlink:href="#22" y="6.513"/><use xlink:href="#23" y="8.684"/><use xlink:href="#24" y="10.855"/><use xlink:href="#25" y="13.026"/><use xlink:href="#26" y="17.368"/><use xlink:href="#27" y="19.539"/><use xlink:href="#28" y="21.71"/><use xlink:href="#29" y="26.052"/><use xlink:href="#30" y="28.223"/><use xlink:href="#31" y="30.394"/></svg><svg x="6600"><use xlink:href="#a"/><use xlink:href="#b" x="-.004" y="32.54"/><use xlink:href="#21"/><use xlink:href="#22" y="4.342"/><use xlink:href="#23" y="6.513"/><use xlink:href="#24" y="8.684"/><use xlink:href="#25" y="10.855"/><use xlink:href="#26" y="15.197"/><use xlink:href="#27" y="17.368"/><use xlink:href="#28" y="19.539"/><use xlink:href="#29" y="23.881"/><use xlink:href="#30" y="26.052"/><use xlink:href="#31" y="28.223"/><use xlink:href="#32" y="30.394"/></svg><svg x="6700"><use xlink:href="#a"/><use xlink:href="#b" x="-.004" y="32.54"/><use xlink:href="#25"/><use xlink:href="#26" y="4.342"/><use xlink:href="#27" y="6.513"/><use xlink:href="#28" y="8.684"/><use xlink:href="#29" y="13.026"/><use xlink:href="#30" y="15.197"/><use xlink:href="#31" y="17.368"/><use xlink:href="#32" y="19.539"/><use xlink:href="#33" y="23.881"/><use xlink:href="#34" y="26.052"/><use xlink:href="#35" y="28.223"/><use xlink:href="#36" y="30.394"/></svg><svg x="6800"><use xlink:href="#a"/><use xlink:href="#b" x="-.004" y="32.54"/><use xlink:href="#27"/><use xlink:href="#28" y="2.171"/><use xlink:href="#29" y="6.513"/><use xlink:href="#30" y="8.684"/><use xlink:href="#31" y="10.855"/><use xlink:href="#32" y="13.026"/><use xlink:href="#33" y="17.368"/><use xlink:href="#34" y="19.539"/><use xlink:href="#35" y="21.71"/><use xlink:href="#36" y="23.881"/><use xlink:href="#37" y="26.052"/><use xlink:href="#38" y="30.394"/></svg><svg x="6900"><use xlink:href="#a"/><use xlink:href="#b" x="-.004" y="32.54"/><use xlink:href="#29" y="2.171"/><use xlink:href="#30" y="4.342"/><use xlink:href="#31" y="6.513"/><use xlink:href="#32" y="8.684"/><use xlink:href="#33" y="13.026"/><use xlink:href="#34" y="15.197"/><use xlink:href="#35" y="17.368"/><use xlink:href="#36" y="19.539"/><use xlink:href="#37" y="21.71"/><use xlink:href="#38" y="26.052"/><use xlink:href="#39" y="28.223"/></svg><svg x="7000"><use xlink:href="#a"/><use xlink:href="#b" x="1.996" y="32.54"/><use xlink:href="#29" y="2.171"/><use xlink:href="#30" y="4.342"/><use xlink:href="#31" y="6.513"/><use xlink:href="#32" y="8.684"/><use xlink:href="#33" y="13.026"/><use xlink:href="#34" y="15.197"/><use xlink:href="#35" y="17.368"/><use xlink:href="#36" y="19.539"/><use xlink:href="#37" y="21.71"/><use xlink:href="#38" y="26.052"/><use xlink:href="#39" y="28.223"/><use xlink:href="#2" y="32.565"/></svg><svg x="7100"><use xlink:href="#a"/><use xlink:href="#b" x="2.996" y="32.54"/><use xlink:href="#29" y="2.171"/><use xlink:href="#30" y="4.342"/><use xlink:href="#31" y="6.513"/><use xlink:href="#32" y="8.684"/><use xlink:href="#33" y="13.026"/><use xlink:href="#34" y="15.197"/><use xlink:href="#35" y="17.368"/><use xlink:href="#36" y="19.539"/><use xlink:href="#37" y="21.71"/><use xlink:href="#38" y="26.052"/><use xlink:href="#39" y="28.223"/><text y="34.235" class="f">$</text><text x="2.004" y="34.235" class="f">c</text></svg><svg x="7200"><use xlink:href="#a"/><use xlink:href="#b" x="3.996" y="32.54"/><use xlink:href="#29" y="2.171"/><use xlink:href="#30" y="4.342"/><use xlink:href="#31" y="6.513"/><use xlink:href="#32" y="8.684"/><use xlink:href="#33" y="13.026"/><use xlink:href="#34" y="15.197"/><use xlink:href="#35" y="17.368"/><use xlink:href="#36" y="19.539"/><use xlink:href="#37" y="21.71"/><use xlink:href="#38" y="26.052"/><use xlink:href="#39" y="28.223"/><text y="34.235" class="f">$</text><text x="2.004" y="34.235" class="f">cu</text></svg><svg x="7300"><use xlink:href="#a"/><use xlink:href="#b" x="4.996" y="32.54"/><use xlink:href="#29" y="2.171"/><use xlink:href="#30" y="4.342"/><use xlink:href="#31" y="6.513"/><use xlink:href="#32" y="8.684"/><use xlink:href="#33" y="13.026"/><use xlink:href="#34" y="15.197"/><use xlink:href="#35" y="17.368"/><use xlink:href="#36" y="19.539"/><use xlink:href="#37" y="21.71"/><use xlink:href="#38" y="26.052"/><use xlink:href="#39" y="28.223"/><text y="34.235" class="f">$</text><text x="2.004" y="34.235" class="f">cur</text></svg><svg x="7400"><use xlink:href="#a"/><use xlink:href="#b" x="5.996" y="32.54"/><use xlink:href="#29" y="2.171"/><use xlink:href="#30" y="4.342"/><use xlink:href="#31" y="6.513"/><use xlink:href="#32" y="8.684"/><use xlink:href="#33" y="13.026"/><use xlink:href="#34" y="15.197"/><use xlink:href="#35" y="17.368"/><use xlink:href="#36" y="19.539"/><use xlink:href="#37" y="21.71"/><use xlink:href="#38" y="26.052"/><use xlink:href="#39" y="28.223"/><use xlink:href="#40" y="32.565"/></svg><svg x="7500"><use xlink:href="#a"/><use xlink:href="#b" x="6.996" y="32.54"/><use xlink:href="#29" y="2.171"/><use xlink:href="#30" y="4.342"/><use xlink:href="#31" y="6.513"/><use xlink:href="#32" y="8.684"/><use xlink:href="#33" y="13.026"/><use xlink:href="#34" y="15.197"/><use xlink:href="#35" y="17.368"/><use xlink:href="#36" y="19.539"/><use xlink:href="#37" y="21.71"/><use xlink:href="#38" y="26.052"/><use xlink:href="#39" y="28.223"/><use xlink:href="#40" y="32.565"/></svg><svg x="7600"><use xlink:href="#a"/><use xlink:href="#b" x="67.996" y="32.54"/><use xlink:href="#29" y="2.171"/><use xlink:href="#30" y="4.342"/><use xlink:href="#31" y="6.513"/><use xlink:href="#32" y="8.684"/><use xlink:href="#33" y="13.026"/><use xlink:href="#34" y="15.197"/><use xlink:href="#35" y="17.368"/><use xlink:href="#36" y="19.539"/><use xlink:href="#37" y="21.71"/><use xlink:href="#38" y="26.052"/><use xlink:href="#39" y="28.223"/><text y="34.235" class="f">$</text><text x="2.004" y="34.235" class="f">curl</text><path class="l" d="M7.014 32.565h61v2.171h-61z"/><text x="7.014" y="34.235" class="r">https://flarepilot-snowy-hill-6237.tag-concierge.workers.dev/</text></svg><svg x="7700"><use xlink:href="#a"/><use xlink:href="#b" x="-.004" y="32.54"/><use xlink:href="#29"/><use xlink:href="#30" y="2.171"/><use xlink:href="#31" y="4.342"/><use xlink:href="#32" y="6.513"/><use xlink:href="#33" y="10.855"/><use xlink:href="#34" y="13.026"/><use xlink:href="#35" y="15.197"/><use xlink:href="#36" y="17.368"/><use xlink:href="#37" y="19.539"/><use xlink:href="#38" y="23.881"/><use xlink:href="#39" y="26.052"/><use xlink:href="#41" y="30.394"/></svg><svg x="7800"><use xlink:href="#a"/><use xlink:href="#b" x="-.004" y="32.54"/><use xlink:href="#37"/><use xlink:href="#38" y="4.342"/><use xlink:href="#39" y="6.513"/><use xlink:href="#41" y="10.855"/><use xlink:href="#42" y="15.197"/><use xlink:href="#43" y="19.539"/><use xlink:href="#44" y="21.71"/><use xlink:href="#45" y="23.881"/><use xlink:href="#46" y="26.052"/><use xlink:href="#47" y="28.223"/><use xlink:href="#48" y="30.394"/></svg><svg x="7900"><use xlink:href="#a"/><use xlink:href="#b" x="-.004" y="32.54"/><use xlink:href="#38"/><use xlink:href="#39" y="2.171"/><use xlink:href="#41" y="6.513"/><use xlink:href="#42" y="10.855"/><use xlink:href="#43" y="15.197"/><use xlink:href="#44" y="17.368"/><use xlink:href="#45" y="19.539"/><use xlink:href="#46" y="21.71"/><use xlink:href="#47" y="23.881"/><use xlink:href="#48" y="26.052"/><use xlink:href="#39" y="28.223"/></svg><svg x="8000"><use xlink:href="#a"/><use xlink:href="#b" x="1.996" y="32.54"/><use xlink:href="#38"/><use xlink:href="#39" y="2.171"/><use xlink:href="#41" y="6.513"/><use xlink:href="#42" y="10.855"/><use xlink:href="#43" y="15.197"/><use xlink:href="#44" y="17.368"/><use xlink:href="#45" y="19.539"/><use xlink:href="#46" y="21.71"/><use xlink:href="#47" y="23.881"/><use xlink:href="#48" y="26.052"/><use xlink:href="#39" y="28.223"/><use xlink:href="#2" y="32.565"/></svg><svg x="8100"><use xlink:href="#a"/><use xlink:href="#b" x="67.996" y="32.54"/><use xlink:href="#38"/><use xlink:href="#39" y="2.171"/><use xlink:href="#41" y="6.513"/><use xlink:href="#42" y="10.855"/><use xlink:href="#43" y="15.197"/><use xlink:href="#44" y="17.368"/><use xlink:href="#45" y="19.539"/><use xlink:href="#46" y="21.71"/><use xlink:href="#47" y="23.881"/><use xlink:href="#48" y="26.052"/><use xlink:href="#39" y="28.223"/><use xlink:href="#41" y="32.565"/></svg><svg x="8200"><use xlink:href="#a"/><use xlink:href="#b" x="-.004" y="32.54"/><use xlink:href="#39"/><use xlink:href="#41" y="4.342"/><use xlink:href="#42" y="8.684"/><use xlink:href="#43" y="13.026"/><use xlink:href="#44" y="15.197"/><use xlink:href="#45" y="17.368"/><use xlink:href="#46" y="19.539"/><use xlink:href="#47" y="21.71"/><use xlink:href="#48" y="23.881"/><use xlink:href="#39" y="26.052"/><use xlink:href="#41" y="30.394"/></svg><svg x="8300"><use xlink:href="#a"/><use xlink:href="#b" x="-.004" y="32.54"/><use xlink:href="#46"/><use xlink:href="#47" y="2.171"/><use xlink:href="#48" y="4.342"/><use xlink:href="#39" y="6.513"/><use xlink:href="#41" y="10.855"/><use xlink:href="#49" y="15.197"/><use xlink:href="#50" y="19.539"/><use xlink:href="#44" y="21.71"/><use xlink:href="#51" y="23.881"/><use xlink:href="#52" y="26.052"/><use xlink:href="#47" y="28.223"/><use xlink:href="#53" y="30.394"/></svg><svg x="8400"><use xlink:href="#a"/><use xlink:href="#b" x="-.004" y="32.54"/><use xlink:href="#48"/><use xlink:href="#39" y="2.171"/><use xlink:href="#41" y="6.513"/><use xlink:href="#49" y="10.855"/><use xlink:href="#50" y="15.197"/><use xlink:href="#44" y="17.368"/><use xlink:href="#51" y="19.539"/><use xlink:href="#52" y="21.71"/><use xlink:href="#47" y="23.881"/><use xlink:href="#53" y="26.052"/><use xlink:href="#39" y="28.223"/></svg></svg></g></g></svg></svg>